<svg xmlns="http://www.w3.org/2000/svg" viewBox="0 0 240 220" fill="none" role="img" aria-label="Bacano">
  <g stroke="currentColor" stroke-width="15" stroke-linecap="round" stroke-linejoin="round">
    <path d="M24 115 C62 58, 178 58, 216 115 C178 172, 62 172, 24 115 Z"/>
    <circle cx="120" cy="115" r="36"/>
    <path d="M120 59 L120 31"/>
    <path d="M172.8 69.1 L190 46.2"/>
    <path d="M67.2 69.1 L50 46.2"/>
    <path d="M203.4 91.3 L230.6 79.5"/>
    <path d="M36.6 91.3 L9.4 79.5"/>
    <path d="M203.4 138.7 L230.6 150.5"/>
    <path d="M36.6 138.7 L9.4 150.5"/>
    <path d="M172.8 160.9 L190 183.8"/>
    <path d="M67.2 160.9 L50 183.8"/>
    <path d="M120 171 L120 199"/>
  </g>
  <circle cx="120" cy="115" r="15" fill="currentColor"/>
</svg>
